<svg height="26" width="27" fill="none" viewBox="0 0 27 26" xmlns="http://www.w3.org/2000/svg">
	<path d="M6.81375 7.58353L9.56108 10.3309L8.02925 11.8627L2.66675 6.50019L8.02925 1.1377L9.56108 2.66953L6.81375 5.41686H14.5834C16.882 5.41686 19.0864 6.32995 20.7117 7.95527C22.337 9.58058 23.2501 11.785 23.2501 14.0835C23.2501 16.3821 22.337 18.5865 20.7117 20.2118C19.0864 21.8371 16.882 22.7502 14.5834 22.7502H4.83341V20.5835H14.5834C16.3073 20.5835 17.9606 19.8987 19.1796 18.6797C20.3986 17.4607 21.0834 15.8074 21.0834 14.0835C21.0834 12.3596 20.3986 10.7063 19.1796 9.48733C17.9606 8.26835 16.3073 7.58353 14.5834 7.58353H6.81375Z" fill="#808080"/>
</svg>