<svg width="26" height="26" viewBox="0 0 26 26" fill="none" xmlns="http://www.w3.org/2000/svg">
<path d="M6.75 5.25V1.5C6.75 1.16848 6.8817 0.850537 7.11612 0.616116C7.35054 0.381696 7.66848 0.25 8 0.25H18C18.3315 0.25 18.6495 0.381696 18.8839 0.616116C19.1183 0.850537 19.25 1.16848 19.25 1.5V5.25H24.25C24.5815 5.25 24.8995 5.3817 25.1339 5.61612C25.3683 5.85054 25.5 6.16848 25.5 6.5V24C25.5 24.3315 25.3683 24.6495 25.1339 24.8839C24.8995 25.1183 24.5815 25.25 24.25 25.25H1.75C1.41848 25.25 1.10054 25.1183 0.866116 24.8839C0.631696 24.6495 0.5 24.3315 0.5 24V6.5C0.5 6.16848 0.631696 5.85054 0.866116 5.61612C1.10054 5.3817 1.41848 5.25 1.75 5.25H6.75ZM9.25 15.25H3V22.75H23V15.25H16.75V19H9.25V15.25ZM23 7.75H3V12.75H9.25V10.25H16.75V12.75H23V7.75ZM11.75 12.75V16.5H14.25V12.75H11.75ZM9.25 2.75V5.25H16.75V2.75H9.25Z" fill="#CC7B56"/>
</svg>
