<svg width="156" height="27" viewBox="0 0 156 27" fill="none" xmlns="http://www.w3.org/2000/svg">
<path fill-rule="evenodd" clip-rule="evenodd" d="M12.5951 1.71515H12.6271C13.93 1.70577 15.1844 1.87463 16.3915 2.22441C17.5999 2.57419 18.7468 3.16387 19.8324 3.99075L19.2992 4.72917C18.4029 4.02425 17.3825 3.49622 16.2381 3.14376C15.0937 2.79264 13.8891 2.61574 12.6271 2.61574H12.5951C9.40733 2.66667 6.85506 3.68921 4.93831 5.68472C3.02028 7.67888 2.03694 10.3445 1.98579 13.6815V13.715C2.03694 17.0667 3.02028 19.743 4.93831 21.7412C6.85506 23.7394 9.40733 24.7633 12.5951 24.8129H12.6271C13.9032 24.8129 15.1115 24.6373 16.2508 24.2849C17.3889 23.9337 18.4054 23.4057 19.2992 22.7008L19.8324 23.4392C18.7481 24.2661 17.6063 24.8544 16.4056 25.2042C15.2036 25.554 13.9441 25.7242 12.6271 25.7148H12.5951C9.09022 25.6666 6.29881 24.573 4.21838 22.4301C2.13924 20.2885 1.0741 17.383 1.02295 13.715V13.6815C1.0741 10.0282 2.13924 7.13344 4.21838 4.99453C6.29881 2.85697 9.09022 1.7634 12.5951 1.71515Z" fill="white" stroke="white" stroke-width="1.68347" stroke-miterlimit="8"/>
<path fill-rule="evenodd" clip-rule="evenodd" d="M25.1479 1.92957H26.0827V24.585H40.2774V25.5004H25.1479V1.92957Z" fill="white" stroke="white" stroke-width="1.68347" stroke-miterlimit="8"/>
<path fill-rule="evenodd" clip-rule="evenodd" d="M53.0567 1.98857C49.906 2.03145 47.3934 3.05534 45.5226 5.06023C43.6519 7.06645 42.6929 9.79638 42.6482 13.2527V13.2862C42.6929 16.7585 43.6519 19.4991 45.5226 21.5081C47.3934 23.5156 49.906 24.5409 53.0567 24.5837H53.0887C56.2253 24.5409 58.7341 23.5156 60.6112 21.5081C62.4883 19.4991 63.4486 16.7585 63.4985 13.2862V13.2527C63.4486 9.79638 62.4883 7.06645 60.6112 5.06023C58.7341 3.05534 56.2253 2.03145 53.0887 1.98857H53.0567ZM53.0567 1.0719H53.0887C56.5053 1.12283 59.2327 2.24052 61.271 4.42365C63.3105 6.60678 64.3526 9.54978 64.4038 13.2527V13.2862C64.3526 17.0051 63.3105 19.9588 61.271 22.1446C59.2327 24.3318 56.5053 25.4495 53.0887 25.5004H53.0567C49.6234 25.4495 46.8857 24.3318 44.8449 22.1446C42.8054 19.9588 41.7582 17.0051 41.7096 13.2862V13.2527C41.7582 9.54978 42.8054 6.60678 44.8449 4.42365C46.8857 2.24052 49.6234 1.12283 53.0567 1.0719Z" fill="white" stroke="white" stroke-width="1.68347" stroke-miterlimit="8"/>
<path fill-rule="evenodd" clip-rule="evenodd" d="M114.087 1.50073H129.421V2.44153H115.099V13.2593H128.336V14.2001H115.099V24.774H129.421V25.7148H114.087V1.50073Z" fill="white" stroke="white" stroke-width="1.68347" stroke-miterlimit="8"/>
<path fill-rule="evenodd" clip-rule="evenodd" d="M137.348 2.03682V15.7655H144.978C147.464 15.7293 149.339 15.094 150.604 13.8611C151.87 12.6295 152.504 11.024 152.508 9.04587V9.00969C152.504 6.89491 151.87 5.21167 150.604 3.95995C149.339 2.70824 147.464 2.06764 144.978 2.03682H137.348ZM136.372 1.0719H144.978C147.754 1.11076 149.865 1.84919 151.307 3.28853C152.75 4.72787 153.475 6.63492 153.484 9.00969V9.04587C153.477 10.9569 152.949 12.5692 151.899 13.8825C150.848 15.1972 149.306 16.063 147.274 16.4798L153.955 25.9293H152.877L146.295 16.6245C145.889 16.666 145.45 16.6902 144.978 16.6955H137.348V25.9293H136.372V1.0719Z" fill="white" stroke="white" stroke-width="1.68347" stroke-miterlimit="8"/>
<path fill-rule="evenodd" clip-rule="evenodd" d="M88.938 1.50073H89.8152V13.2593H105.236V1.50073H106.113V25.7148H105.236V14.2001H89.8152V25.7148H88.938V1.50073Z" fill="white" stroke="white" stroke-width="1.68347" stroke-miterlimit="8"/>
<path fill-rule="evenodd" clip-rule="evenodd" d="M71.2537 13.8222C71.2537 13.3491 71.6194 12.9645 72.0708 12.9645C72.5221 12.9645 72.8891 13.3491 72.8891 13.8222C72.8891 14.2953 72.5221 14.6786 72.0708 14.6786C71.6194 14.6786 71.2537 14.2953 71.2537 13.8222Z" fill="white" stroke="white" stroke-width="0.748209" stroke-miterlimit="8"/>
<path fill-rule="evenodd" clip-rule="evenodd" d="M77.5908 13.8222C77.5908 13.3491 77.9565 12.9645 78.4092 12.9645C78.8606 12.9645 79.2263 13.3491 79.2263 13.8222C79.2263 14.2953 78.8606 14.6786 78.4092 14.6786C77.9565 14.6786 77.5908 14.2953 77.5908 13.8222Z" fill="white" stroke="white" stroke-width="0.748209" stroke-miterlimit="8"/>
<path d="M74.5245 2.46436H75.7508V26.0365H74.5245V2.46436Z" fill="white" stroke="white" stroke-width="0.748209" stroke-miterlimit="8"/>
<path d="M66.3461 1.17908H83.7247V2.46429H66.3461V1.17908Z" fill="white" stroke="white" stroke-width="0.748209" stroke-miterlimit="8"/>
</svg>
