<svg width="24" height="20" viewBox="0 0 24 20" fill="none" xmlns="http://www.w3.org/2000/svg">
<path d="M14.5155 2.9999L17.1215 0.392896C17.2143 0.299919 17.3246 0.226161 17.446 0.175836C17.5674 0.125512 17.6976 0.0996094 17.829 0.0996094C17.9604 0.0996094 18.0905 0.125512 18.2119 0.175836C18.3333 0.226161 18.4436 0.299919 18.5365 0.392896L22.7785 4.6359C22.9659 4.82342 23.0713 5.07773 23.0713 5.3429C23.0713 5.60806 22.9659 5.86237 22.7785 6.0499L19.0005 9.8279V18.9999C19.0005 19.2651 18.8951 19.5195 18.7076 19.707C18.52 19.8945 18.2657 19.9999 18.0005 19.9999H6.00047C5.73526 19.9999 5.4809 19.8945 5.29337 19.707C5.10583 19.5195 5.00047 19.2651 5.00047 18.9999V9.8279L1.22247 6.0499C1.035 5.86237 0.929688 5.60806 0.929688 5.3429C0.929688 5.07773 1.035 4.82342 1.22247 4.6359L5.46447 0.392896C5.55735 0.299919 5.66764 0.226161 5.78903 0.175836C5.91043 0.125512 6.04056 0.0996094 6.17197 0.0996094C6.30339 0.0996094 6.43352 0.125512 6.55491 0.175836C6.67631 0.226161 6.7866 0.299919 6.87947 0.392896L9.48547 2.9999H14.5155ZM15.3435 4.9999H8.65747L6.17247 2.5149L3.34347 5.3429L7.00047 8.9999V17.9999H17.0005V8.9999L20.6575 5.3429L17.8285 2.5149L15.3435 4.9999Z" fill="#CC7B56"/>
</svg>
