<svg width="24" height="25" viewBox="0 0 24 25" fill="none" xmlns="http://www.w3.org/2000/svg">
<path d="M13.25 22H20.75V17H15.75V14.5H20.75V4.5H18.25V10.75L13.25 8.75V22ZM10.75 22V8.75L5.75 10.75V4.5H3.25V22H10.75ZM5.75 2V0.75H18.25V2H22C22.3315 2 22.6495 2.1317 22.8839 2.36612C23.1183 2.60054 23.25 2.91848 23.25 3.25V23.25C23.25 23.5815 23.1183 23.8995 22.8839 24.1339C22.6495 24.3683 22.3315 24.5 22 24.5H2C1.66848 24.5 1.35054 24.3683 1.11612 24.1339C0.881696 23.8995 0.75 23.5815 0.75 23.25V3.25C0.75 2.91848 0.881696 2.60054 1.11612 2.36612C1.35054 2.1317 1.66848 2 2 2H5.75ZM12 7L16.375 3.25H7.625L12 7Z" fill="#CC7B56"/>
</svg>
