<svg width="20" height="20" viewBox="0 0 20 20" fill="none" xmlns="http://www.w3.org/2000/svg">
<path d="M8.00001 3.99992C8.00001 4.73192 7.80301 5.41892 7.46001 6.00992L10 8.58492L16.728 1.85692C17.1031 1.48198 17.6117 1.27135 18.142 1.27135C18.6723 1.27135 19.181 1.48198 19.556 1.85692L7.44601 13.9669C7.9405 14.8056 8.11215 15.7958 7.92877 16.752C7.7454 17.7081 7.21959 18.5646 6.44992 19.1608C5.68024 19.757 4.71954 20.052 3.74789 19.9906C2.77625 19.9291 1.86037 19.5154 1.17194 18.827C0.483508 18.1386 0.0697922 17.2227 0.00834105 16.251C-0.0531101 15.2794 0.241923 14.3187 0.838135 13.549C1.43435 12.7793 2.29081 12.2535 3.24697 12.0701C4.20313 11.8868 5.19335 12.0584 6.03201 12.5529L8.58601 9.99992L6.03201 7.44592C5.2722 7.89402 4.38559 8.07841 3.51013 7.97038C2.63467 7.86235 1.81947 7.46796 1.1914 6.8486C0.563319 6.22923 0.157589 5.41962 0.0373444 4.54576C-0.0829002 3.67189 0.0890854 2.78279 0.526537 2.0168C0.963989 1.25082 1.64237 0.650915 2.45612 0.310449C3.26986 -0.030017 4.17333 -0.0919492 5.02592 0.13429C5.87851 0.360528 6.63241 0.862249 7.17029 1.56138C7.70818 2.2605 7.99988 3.11782 8.00001 3.99992ZM6.00001 3.99992C6.00001 3.46949 5.78929 2.96078 5.41422 2.5857C5.03915 2.21063 4.53044 1.99992 4.00001 1.99992C3.46957 1.99992 2.96086 2.21063 2.58579 2.5857C2.21072 2.96078 2.00001 3.46949 2.00001 3.99992C2.00001 4.53035 2.21072 5.03906 2.58579 5.41413C2.96086 5.7892 3.46957 5.99992 4.00001 5.99992C4.53044 5.99992 5.03915 5.7892 5.41422 5.41413C5.78929 5.03906 6.00001 4.53035 6.00001 3.99992ZM19.556 18.1419C19.181 18.5169 18.6723 18.7275 18.142 18.7275C17.6117 18.7275 17.1031 18.5169 16.728 18.1419L11.411 12.8259L12.826 11.4109L19.556 18.1419ZM14 8.99992H16V10.9999H14V8.99992ZM18 8.99992H20V10.9999H18V8.99992ZM4.00001 8.99992H6.00001V10.9999H4.00001V8.99992ZM5.69981e-06 8.99992H2.00001V10.9999H5.69981e-06V8.99992ZM4.00001 17.9999C4.53044 17.9999 5.03915 17.7892 5.41422 17.4141C5.78929 17.0391 6.00001 16.5304 6.00001 15.9999C6.00001 15.4695 5.78929 14.9608 5.41422 14.5857C5.03915 14.2106 4.53044 13.9999 4.00001 13.9999C3.46957 13.9999 2.96086 14.2106 2.58579 14.5857C2.21072 14.9608 2.00001 15.4695 2.00001 15.9999C2.00001 16.5304 2.21072 17.0391 2.58579 17.4141C2.96086 17.7892 3.46957 17.9999 4.00001 17.9999Z" fill="#CC7B56"/>
</svg>
