<svg width="102" height="127" viewBox="0 0 102 127" fill="none" xmlns="http://www.w3.org/2000/svg">
<path d="M78.2245 21.0257C78.4462 21.6722 78.4826 22.3655 78.3336 23.0336L71.4529 53.5794L58.0769 47.4157L51.0037 44.1578C51.0037 44.1578 75.4294 24.4237 75.433 12.8433L78.2245 21.0257Z" fill="#CC7B56" fill-opacity="0.4"/>
<path d="M58.0769 47.4156L58.215 126H50.9854H44.0903L43.9521 47.4048L51 44.1577H51.0036L58.0769 47.4156ZM53.4389 60.1203C53.4389 58.8703 52.4139 57.8538 51.1526 57.8538C49.8877 57.8538 48.8664 58.8703 48.8664 60.1203C48.8664 61.3739 49.8877 62.3904 51.1526 62.3904C52.4139 62.3904 53.4389 61.3739 53.4389 60.1203ZM53.4389 85.3321C53.4389 84.0785 52.4139 83.062 51.1526 83.062C49.8877 83.062 48.8664 84.0785 48.8664 85.3321C48.8664 86.5857 49.8877 87.5986 51.1526 87.5986C52.4139 87.5986 53.4389 86.5857 53.4389 85.3321ZM53.4389 109.725C53.4389 108.471 52.4139 107.455 51.1526 107.455C49.8877 107.455 48.8664 108.471 48.8664 109.725C48.8664 110.979 49.8877 111.995 51.1526 111.995C52.4139 111.995 53.4389 110.979 53.4389 109.725Z" fill="#CC7B56" fill-opacity="0.4"/>
<path d="M51.1526 57.8538C52.4139 57.8538 53.4389 58.8703 53.4389 60.1203C53.4389 61.3739 52.4139 62.3904 51.1526 62.3904C49.8877 62.3904 48.8663 61.3739 48.8663 60.1203C48.8663 58.8703 49.8877 57.8538 51.1526 57.8538Z" fill="#072638"/>
<path d="M51.1526 83.062C52.4139 83.062 53.4389 84.0785 53.4389 85.3321C53.4389 86.5857 52.4139 87.5986 51.1526 87.5986C49.8877 87.5986 48.8663 86.5857 48.8663 85.3321C48.8663 84.0785 49.8877 83.062 51.1526 83.062Z" fill="#072638"/>
<path d="M51.1526 111.995C52.4153 111.995 53.4389 110.979 53.4389 109.725C53.4389 108.471 52.4153 107.455 51.1526 107.455C49.8899 107.455 48.8663 108.471 48.8663 109.725C48.8663 110.979 49.8899 111.995 51.1526 111.995Z" fill="#072638"/>
<path d="M43.9522 47.4048L30.5508 53.5793L23.6665 23.0335C23.5175 22.3654 23.5538 21.6721 23.7756 21.0256L26.6979 12.4624C26.6979 24.0428 51 44.1577 51 44.1577L43.9522 47.4048Z" fill="#CC7B56" fill-opacity="0.4"/>
<path d="M58.215 126L58.0769 47.4155" stroke="#072638" stroke-width="2" stroke-miterlimit="10" stroke-linecap="round" stroke-linejoin="round"/>
<path d="M44.0903 126L43.9521 47.405V47.4014" fill="#CC7B56"/>
<path d="M44.0903 126L43.9521 47.405V47.4014" stroke="#072638" stroke-width="2" stroke-miterlimit="10" stroke-linecap="round" stroke-linejoin="round"/>
<path d="M87.6967 17.3978L98.2085 20.4042C99.8732 20.8173 101 22.0206 101 23.3532V122.9C101 124.603 99.1971 126 96.9654 126H58.215H50.9855H44.0903H5.00916C2.80648 126 1 124.603 1 122.9V23.3532C1 22.0206 2.10134 20.8173 3.76607 20.4042L15.4519 17.3762" stroke="#072638" stroke-width="2" stroke-miterlimit="10" stroke-linecap="round" stroke-linejoin="round"/>
<path d="M75.433 12.8396L74.3426 9.64635C73.492 7.14996 71.5583 5.13847 69.0685 4.21894C53.359 -1.57845 39.5977 1.76205 33.0333 4.13632C30.5035 5.05227 28.5444 7.04938 27.6829 9.57811L26.6979 12.4624L23.7756 21.0256C23.5538 21.6722 23.5175 22.3654 23.6665 23.0335L30.5508 53.5793L43.9522 47.4048L51 44.1577C51 44.1577 26.6979 24.0428 26.6979 12.4624" stroke="#072638" stroke-width="2" stroke-miterlimit="10" stroke-linecap="round" stroke-linejoin="round"/>
<path d="M75.433 12.8433C75.4294 24.4237 51.0037 44.1578 51.0037 44.1578L58.0769 47.4157L71.4529 53.5794L78.3336 23.0336C78.4826 22.3655 78.4462 21.6722 78.2245 21.0257L75.433 12.8433Z" stroke="#072638" stroke-width="2" stroke-miterlimit="10" stroke-linecap="round" stroke-linejoin="round"/>
<path d="M75.4329 12.8435V12.8396" stroke="#072638" stroke-width="2" stroke-miterlimit="10" stroke-linecap="round" stroke-linejoin="round"/>
<path d="M61.7299 16.629C56.4231 15.8783 45.944 15.8316 40.2701 16.7835" stroke="#072638" stroke-width="2" stroke-miterlimit="10" stroke-linecap="round" stroke-linejoin="round"/>
</svg>
