<svg width="9" height="14" viewBox="0 0 9 14" fill="none" xmlns="http://www.w3.org/2000/svg">
<path d="M4.66667 5.44444H8.16667L7.77778 7H4.66667V14H3.11111V7H0V5.44444H3.11111V3.98844C3.11111 2.60167 3.25578 2.09844 3.52644 1.59133C3.79167 1.09029 4.20141 0.680563 4.70244 0.415333C5.20955 0.144667 5.71278 0 7.09956 0C7.50556 0 7.86178 0.038889 8.16667 0.116667V1.55556H7.09956C6.06978 1.55556 5.75633 1.61622 5.43667 1.78733C5.20022 1.91333 5.02444 2.08911 4.89844 2.32556C4.72733 2.64522 4.66667 2.95867 4.66667 3.98844V5.44444Z" fill="#CC7B56"/>
</svg>
