<svg width="174" height="92" viewBox="0 0 174 92" fill="none" xmlns="http://www.w3.org/2000/svg">
<path d="M169.576 81.6228C169.784 82.024 172.459 87.3266 172.395 90.3906L164.403 86.0226L89.6225 45.1565C87.986 44.2629 86.0095 44.2629 84.373 45.1565L9.5924 86.0226L1.60027 90.3906C1.53227 87.3266 4.21143 82.024 4.41996 81.6228C8.98495 72.9325 49.3445 61.1054 63.2616 45.8176C69.1549 39.3478 74.3318 35.1851 78.3347 32.5406C80.9685 30.8035 83.9741 29.9326 86.9932 29.9326C90.0078 29.9326 93.027 30.7989 95.6608 32.5406C99.6637 35.1851 104.836 39.3478 110.729 45.8176C124.646 61.1054 165.011 72.9325 169.576 81.6228Z" fill="#CC7B56" fill-opacity="0.4"/>
<path d="M86.9932 29.9326C90.0078 29.9326 93.027 30.7989 95.6608 32.5406C99.6637 35.1851 104.836 39.3478 110.729 45.8176C124.646 61.1054 165.011 72.9325 169.576 81.6228C169.784 82.024 172.459 87.3266 172.395 90.3906L164.403 86.0226L89.6225 45.1565C87.986 44.2629 86.0095 44.2629 84.373 45.1565L9.5924 86.0226L1.60027 90.3906C1.53227 87.3266 4.21143 82.024 4.41996 81.6228C8.98495 72.9325 49.3445 61.1054 63.2616 45.8176C69.1549 39.3478 74.3318 35.1851 78.3347 32.5406C80.9685 30.8035 83.9741 29.9326 86.9932 29.9326Z" stroke="#051B2B" stroke-width="1.5" stroke-miterlimit="10" stroke-linecap="round" stroke-linejoin="round"/>
<path d="M9.59241 86.0225H164.403" stroke="#051B2B" stroke-width="1.5" stroke-miterlimit="10" stroke-linecap="round" stroke-linejoin="round"/>
<path d="M75.7462 13.5048L78.643 12.2236C78.0536 10.76 78.4798 2.02418 86.9842 1.61839C95.5475 1.20805 100.067 14.8954 86.9887 23.0978L86.9932 29.9324" stroke="#051B2B" stroke-width="1.5" stroke-miterlimit="10" stroke-linecap="round" stroke-linejoin="round"/>
</svg>
