<svg width="120" height="170" viewBox="0 0 120 170" fill="none" xmlns="http://www.w3.org/2000/svg">
<path d="M36.9789 27.8078C36.9789 27.8078 55.0547 17.9186 78.9817 27.8078C79.3653 30.175 79.4855 31.9619 79.4624 33.31C79.4254 35.4121 77.1145 36.8516 74.8822 36.1844C71.231 35.0877 65.0747 33.6024 58.2022 33.5385C58.1282 33.5385 58.0543 33.5385 57.9803 33.5385C57.9064 33.5385 57.8324 33.5385 57.7585 33.5385C50.8859 33.6024 44.7297 35.0877 41.0785 36.1844C38.8461 36.8516 36.5352 35.4121 36.4983 33.31C36.4752 31.9619 36.5999 30.175 36.9789 27.8078Z" fill="#CC7B56" fill-opacity="0.4"/>
<path d="M36.9789 27.8078C36.9789 27.8078 32.4588 2.2987 58.2021 2.74655C83.9455 3.19897 78.9817 27.8078 78.9817 27.8078C55.0547 17.9186 36.9789 27.8078 36.9789 27.8078Z" fill="#CC7B56" fill-opacity="0.4"/>
<path d="M25.7387 110.961V74.3018L35.7356 71.0663C36.5814 70.7921 37.3948 70.4677 38.1759 70.0884V94.8526H57.7491H77.3224V70.093C77.327 70.093 77.327 70.0975 77.3316 70.0975C78.1035 70.4631 78.9262 70.8059 79.7488 71.0663L89.7458 74.3018V110.961C89.7504 110.961 89.755 110.961 89.7596 110.961L96.0129 135.155L85.4891 151.437L77.3594 143.367C72.3863 137.851 69.8074 130.621 70.154 123.236L70.2326 121.449C70.4221 117.378 69.5162 113.301 67.3624 109.86C59.9722 98.0835 45.4367 105.496 45.4367 105.496L53.8345 113.987L46.6846 121.002L39.0032 113.594C39.0032 113.594 36.8772 120.453 44.1842 127.523C44.956 128.259 45.8064 128.994 46.7909 129.73C52.7715 134.25 67.8385 149.093 79.453 160.764L75.2565 167.258H26.7739L24.6341 151.761C24.1534 147.562 24.024 143.33 24.2504 139.112L25.7433 110.961H25.7387Z" fill="#CC7B56" fill-opacity="0.4"/>
<path d="M67.2285 57.4525C71.3049 54.6969 74.4293 50.2184 75.8897 44.8579" stroke="#072638" stroke-width="1.5" stroke-miterlimit="10" stroke-linecap="round" stroke-linejoin="round"/>
<path d="M39.6272 44.8579C41.0831 50.2001 44.1935 54.6695 48.2514 57.4297C51.0476 59.3399 54.2967 60.4275 57.7585 60.4275C61.2063 60.4275 64.4369 59.349 67.2285 57.4571" stroke="#072638" stroke-width="1.5" stroke-miterlimit="10" stroke-linecap="round" stroke-linejoin="round"/>
<path d="M38.1759 70.0884C37.3949 70.4677 36.5814 70.7921 35.7356 71.0663L25.7387 74.3018L18.3254 76.6919C12.2108 78.6615 7.53351 83.629 5.93899 89.8075L2.77307 102.187C2.77307 102.187 4.32599 103.645 7.08982 105.373C11.1061 107.881 17.6783 110.961 25.7387 110.961V74.3018" stroke="#072638" stroke-width="1.5" stroke-miterlimit="10" stroke-linecap="round" stroke-linejoin="round"/>
<path d="M48.2514 57.4297C47.0266 62.9318 43.3384 67.5977 38.1759 70.0837V70.0883C38.1759 70.0883 56.15 85.923 77.3132 70.0883C77.3178 70.0883 77.3178 70.0883 77.3224 70.0837V70.0929V94.8525H57.7492" stroke="#072638" stroke-width="1.5" stroke-miterlimit="10" stroke-linecap="round" stroke-linejoin="round"/>
<path d="M57.7492 94.8526H38.1759V70.0884" stroke="#072638" stroke-width="1.5" stroke-miterlimit="10" stroke-linecap="round" stroke-linejoin="round"/>
<path d="M67.2285 57.4526V57.4572C68.481 62.9411 72.1646 67.6161 77.3132 70.0884C77.3179 70.0884 77.3179 70.093 77.3225 70.093C77.3271 70.093 77.3271 70.0975 77.3317 70.0975C78.1036 70.4631 78.9262 70.8059 79.7489 71.0663L89.7458 74.3018V110.962C89.7505 110.962 89.7551 110.962 89.7597 110.962C98.7907 110.957 105.959 107.091 109.754 104.491C111.676 103.179 112.735 102.187 112.735 102.187L109.546 89.8075C107.979 83.629 103.302 78.6615 97.1592 76.6919L89.7458 74.3018" stroke="#072638" stroke-width="1.5" stroke-miterlimit="10" stroke-linecap="round" stroke-linejoin="round"/>
<path d="M7.08978 105.363V105.372L5.01923 136.503C4.66335 141.858 5.04233 147.237 6.14232 152.497L9.56706 167.258" stroke="#072638" stroke-width="1.5" stroke-miterlimit="10" stroke-linecap="round" stroke-linejoin="round"/>
<path d="M25.7433 110.953V110.962L24.2504 139.112C24.024 143.33 24.1534 147.562 24.6341 151.762L26.7739 167.258" stroke="#072638" stroke-width="1.5" stroke-miterlimit="10" stroke-linecap="round" stroke-linejoin="round"/>
<path d="M109.753 104.486L116.876 134.441C117.892 139.002 116.672 143.769 113.58 147.306L96.0083 167.258" stroke="#072638" stroke-width="1.5" stroke-miterlimit="10" stroke-linecap="round" stroke-linejoin="round"/>
<path d="M89.755 110.953L89.7596 110.962L96.0129 135.155L85.4891 151.437L79.4531 160.764L75.2565 167.258" stroke="#072638" stroke-width="1.5" stroke-miterlimit="10" stroke-linecap="round" stroke-linejoin="round"/>
<path d="M79.4577 160.769L79.4531 160.764C67.8386 149.093 52.7716 134.25 46.791 129.73C45.8065 128.994 44.9561 128.259 44.1843 127.523C36.8772 120.453 39.0033 113.594 39.0033 113.594L46.6847 121.002L53.8346 113.987L45.4368 105.496C45.4368 105.496 59.9723 98.0836 67.3625 109.86C69.5163 113.301 70.4221 117.378 70.2327 121.449L70.1541 123.236C69.8074 130.621 72.3864 137.851 77.3594 143.367L85.4892 151.437" stroke="#072638" stroke-width="1.5" stroke-miterlimit="10" stroke-linecap="round" stroke-linejoin="round"/>
<path d="M55.979 125.814L61.1415 120.709" stroke="#072638" stroke-width="1.5" stroke-miterlimit="10" stroke-linecap="round" stroke-linejoin="round"/>
<path d="M58.2022 33.5385C58.1282 33.5385 58.0543 33.5385 57.9803 33.5385C57.9064 33.5385 57.8324 33.5385 57.7585 33.5385C50.8859 33.6025 44.7297 35.0877 41.0785 36.1845C38.8461 36.8517 36.5352 35.4121 36.4983 33.31C36.4752 31.9619 36.5999 30.175 36.9789 27.8078C36.9789 27.8078 32.4588 2.2987 58.2022 2.74655C83.9455 3.19897 78.9817 27.8078 78.9817 27.8078C79.3653 30.175 79.4855 31.9619 79.4624 33.31C79.4254 35.4121 77.1145 36.8517 74.8822 36.1845C71.231 35.0877 65.0747 33.6025 58.2022 33.5385Z" stroke="#072638" stroke-width="1.5" stroke-miterlimit="10" stroke-linecap="round" stroke-linejoin="round"/>
<path d="M36.9789 27.8078C36.9789 27.8078 55.0547 17.9186 78.9817 27.8078" stroke="#072638" stroke-width="1.5" stroke-miterlimit="10" stroke-linecap="round" stroke-linejoin="round"/>
</svg>
