<svg width="170" height="170" viewBox="0 0 170 170" fill="none" xmlns="http://www.w3.org/2000/svg">
<path d="M108.589 15.9122L111.1 21.5121L98.5926 19.2239L86.9073 17.0853L74.761 14.8646L72.0452 14.3674L72.8469 8.03852C73.1626 5.55235 74.8562 3.37031 77.2865 2.53998C84.1463 0.198632 89.9539 0.811727 94.5388 2.48688C100.913 4.81374 105.863 9.83436 108.589 15.9122Z" fill="#CC7B56" fill-opacity="0.4"/>
<path d="M65.9373 47.119L67.2952 48.0362L67.2702 48.07L61.5027 56.1513L34.5043 37.9081L33.1263 36.9764L38.9189 28.8613L65.9373 47.119Z" fill="#CC7B56" fill-opacity="0.4"/>
<path d="M61.5025 56.1494L47.5373 75.7202L44.3955 80.1229L17.4021 61.8797L34.5041 37.9062L61.5025 56.1494Z" fill="#CC7B56" fill-opacity="0.4"/>
<path d="M52.7831 119.898L31.9581 140.159L30.9559 139.875V139.865V139.85L52.6529 119.763C52.703 119.807 52.7431 119.85 52.7831 119.898Z" fill="white"/>
<path d="M30.9569 139.85V139.868L30.9507 139.85H30.9569Z" fill="white"/>
<path d="M30.9547 139.844H30.9507V139.848H30.9547V139.844Z" fill="white"/>
<path d="M52.7834 119.897C56.4814 123.711 59.1572 128.548 60.3047 134.061C61.3019 138.85 61.0313 143.6 59.7184 147.984C56.7019 158.049 48.1935 166.183 36.9041 168.414C26.4264 170.48 16.1241 166.951 9.25428 159.941C5.49616 156.104 2.76525 151.223 1.60273 145.642C0.605577 140.858 0.876163 136.113 2.189 131.729C5.20052 121.659 13.7089 113.515 25.0034 111.29C35.481 109.219 45.7883 112.748 52.6532 119.762C52.7033 119.805 52.7434 119.849 52.7834 119.897Z" stroke="#051B2B" stroke-width="1.5" stroke-miterlimit="10" stroke-linecap="round" stroke-linejoin="round"/>
<path d="M30.9559 139.875L36.9038 168.415" stroke="#051B2B" stroke-width="1.5" stroke-miterlimit="10" stroke-linecap="round" stroke-linejoin="round"/>
<path d="M25.0037 111.291L30.9515 139.845V139.85L30.9565 139.865" stroke="#051B2B" stroke-width="1.5" stroke-miterlimit="10" stroke-linecap="round" stroke-linejoin="round"/>
<path d="M52.6533 119.763L30.9563 139.85H30.9513L9.2594 159.938" stroke="#051B2B" stroke-width="1.5" stroke-miterlimit="10" stroke-linecap="round" stroke-linejoin="round"/>
<path d="M67.9921 150.127H67.9871L59.7192 147.984L31.9742 140.163L31.9592 140.158L30.957 139.874V139.864V139.849V139.845H30.952L2.19983 131.734" stroke="#051B2B" stroke-width="1.5" stroke-miterlimit="10" stroke-linecap="round" stroke-linejoin="round"/>
<path d="M148.275 167.482C143.084 169.123 137.361 169.408 131.669 168.023C126.783 166.835 122.479 164.556 118.966 161.52C110.904 154.549 107.006 143.605 109.807 132.762C112.402 122.707 120.134 115.205 129.624 112.216C134.816 110.575 140.538 110.29 146.23 111.676C151.111 112.863 155.415 115.142 158.928 118.183C166.995 125.145 170.899 136.098 168.098 146.936C165.497 156.992 157.765 164.494 148.275 167.482Z" stroke="#051B2B" stroke-width="1.5" stroke-miterlimit="10" stroke-linecap="round" stroke-linejoin="round"/>
<path d="M168.097 146.938L138.949 139.851L109.806 132.765" stroke="#051B2B" stroke-width="1.5" stroke-miterlimit="10" stroke-linecap="round" stroke-linejoin="round"/>
<path d="M148.275 167.481L138.95 139.849L129.625 112.221" stroke="#051B2B" stroke-width="1.5" stroke-miterlimit="10" stroke-linecap="round" stroke-linejoin="round"/>
<path d="M118.97 161.514L138.949 139.849L158.927 118.183" stroke="#051B2B" stroke-width="1.5" stroke-miterlimit="10" stroke-linecap="round" stroke-linejoin="round"/>
<path d="M121.117 99.1763L82.5939 104.911" stroke="#051B2B" stroke-width="1.5" stroke-miterlimit="10" stroke-linecap="round" stroke-linejoin="round"/>
<path d="M122.049 91.0396L124.825 97.6774L127.551 104.161" stroke="#051B2B" stroke-width="1.5" stroke-miterlimit="10" stroke-linecap="round" stroke-linejoin="round"/>
<path d="M123.07 103.792L95.976 130.845" stroke="#051B2B" stroke-width="1.5" stroke-miterlimit="10" stroke-linecap="round" stroke-linejoin="round"/>
<path d="M127.543 104.169L130.269 111.811" stroke="#051B2B" stroke-width="1.5" stroke-miterlimit="10" stroke-linecap="round" stroke-linejoin="round"/>
<path d="M74.761 14.8646L72.0452 14.3674L72.8469 8.03852C73.1626 5.55235 74.8562 3.37031 77.2865 2.53998C84.1463 0.198632 89.9539 0.811727 94.5388 2.48688C100.913 4.81374 105.863 9.83436 108.589 15.9122L111.1 21.5121L98.5926 19.2239L86.9073 17.0853L74.761 14.8646Z" stroke="#051B2B" stroke-width="1.5" stroke-miterlimit="10" stroke-linecap="round" stroke-linejoin="round"/>
<path d="M98.5929 19.2327C98.6029 19.754 98.5829 20.2802 98.5328 20.8161C97.8413 27.5312 92.7452 32.658 86.7723 33.0877C86.141 33.1359 85.4996 33.1311 84.8532 33.0683C82.3928 32.8221 80.1831 31.8084 78.3992 30.2587C75.2524 27.5312 73.4385 23.143 73.9295 18.4023C74.0698 17.1472 74.3454 15.9789 74.7613 14.8638" stroke="#051B2B" stroke-width="1.5" stroke-miterlimit="10" stroke-linecap="round" stroke-linejoin="round"/>
<path d="M34.5043 37.9081L33.1263 36.9764L38.9189 28.8613L65.9373 47.119L67.2953 48.0362L67.2702 48.07L61.5027 56.1513" stroke="#051B2B" stroke-width="1.5" stroke-miterlimit="10" stroke-linecap="round" stroke-linejoin="round"/>
<path d="M47.5373 75.7202L44.3955 80.1229L17.4021 61.8797L34.5041 37.9062L61.5025 56.1494L47.5373 75.7202Z" stroke="#051B2B" stroke-width="1.5" stroke-miterlimit="10" stroke-linecap="round" stroke-linejoin="round"/>
<path d="M47.7576 75.8666C47.7576 75.8666 62.8252 77.5756 75.9085 66.9985C75.9135 66.9985 75.9135 66.9985 75.9185 66.9937" stroke="#051B2B" stroke-width="1.5" stroke-miterlimit="10" stroke-linecap="round" stroke-linejoin="round"/>
<path d="M44.4662 80.4801C44.4662 80.4801 43.7646 83.5118 44.2707 87.4558C44.9472 92.6696 47.7533 99.4812 57.1336 102.996L73.3637 118.584C76.4303 121.524 77.4174 125.941 75.8942 129.851L67.987 150.127L63.4422 161.78L85.0389 168.785C86.7476 169.34 88.6016 168.476 89.233 166.835C89.3783 166.463 89.4435 166.077 89.4435 165.695C89.4435 164.537 88.8071 163.426 87.7147 162.842L83.691 160.689L76.6959 156.943L84.142 140.168L90.8064 125.154C92.2946 121.799 91.8988 117.937 89.7541 114.934L72.0458 90.1641V86.7221L72.0408 77.8877" stroke="#051B2B" stroke-width="1.5" stroke-miterlimit="10" stroke-linecap="round" stroke-linejoin="round"/>
<path d="M84.4513 140.293C87.6683 142.407 89.7879 145.994 89.7879 150.059C89.7879 154.302 87.4829 158.02 84.0304 160.095" stroke="#051B2B" stroke-width="1.5" stroke-miterlimit="10" stroke-linecap="round" stroke-linejoin="round"/>
<path d="M67.2803 48.0739L76.856 47.8615C79.657 47.7842 82.2226 49.4401 83.2448 52.0131L90.3652 69.5708C91.6329 72.7232 94.3037 75.108 97.5958 76.0832L118.907 82.3541C121.282 83.0637 123.762 82.7741 126.002 81.7507C128.107 80.7803 130.773 80.3845 132.015 83.5899C134.175 89.2864 132.015 93.3802 129.319 93.8774C127.997 94.1429 126.619 93.4864 125.596 92.7767C123.898 91.594 121.898 90.8602 119.879 90.4112L90.3401 84.0341C86.5369 83.1941 83.2999 80.7803 81.491 77.4204L75.9089 66.9978L73.5087 62.513" stroke="#051B2B" stroke-width="1.5" stroke-miterlimit="10" stroke-linecap="round" stroke-linejoin="round"/>
<path d="M65.927 47.1276C65.927 47.1227 65.932 47.1227 65.937 47.1179C70.4668 40.0649 75.9086 36.758 75.9086 36.758L78.399 30.2602L78.404 30.2554" stroke="#051B2B" stroke-width="1.5" stroke-miterlimit="10" stroke-linecap="round" stroke-linejoin="round"/>
<path d="M62.2296 110.705L52.7842 119.897L31.9591 140.158L31.8239 140.293" stroke="#051B2B" stroke-width="1.5" stroke-miterlimit="10" stroke-linecap="round" stroke-linejoin="round"/>
<path d="M121.133 73.6201L104.822 67.6871C103.239 67.1078 101.851 66.1182 100.814 64.8147C98.579 62.0099 96.5296 59.07 94.6856 56.0142C92.8466 52.9535 91.208 49.777 89.795 46.5088C87.7155 41.6957 85.631 38.8813 85.631 38.8813L86.7735 33.0883V33.0786" stroke="#051B2B" stroke-width="1.5" stroke-miterlimit="10" stroke-linecap="round" stroke-linejoin="round"/>
<path d="M86.9056 17.0859L84.8512 33.0699" stroke="#051B2B" stroke-width="1.5" stroke-miterlimit="10" stroke-linecap="round" stroke-linejoin="round"/>
<path d="M44.2808 87.4555C44.2808 87.4555 55.6854 92.843 72.0458 86.7217" stroke="#051B2B" stroke-width="1.5" stroke-miterlimit="10" stroke-linecap="round" stroke-linejoin="round"/>
</svg>
