<svg width="28" height="25" viewBox="0 0 28 25" fill="none" xmlns="http://www.w3.org/2000/svg">
<path d="M14.0012 2.03864C17.1332 -0.77336 21.9732 -0.680027 24.9905 2.34264C28.0065 5.36664 28.1105 10.1826 25.3052 13.324L13.9985 24.6466L2.69451 13.324C-0.110821 10.1826 -0.0054878 5.35864 3.00918 2.34264C6.02918 -0.676027 10.8598 -0.77736 14.0012 2.03864ZM23.1025 4.22664C21.1025 2.22397 17.8758 2.14264 15.7825 4.02264L14.0025 5.61997L12.2212 4.02397C10.1212 2.14131 6.90118 2.22397 4.89585 4.22931C2.90918 6.21597 2.80918 9.39597 4.63985 11.4973L13.9998 20.872L23.3598 11.4986C25.1918 9.39597 25.0918 6.21997 23.1025 4.22664Z" fill="#CC7B56"/>
</svg>
