<svg width="14" height="14" viewBox="0 0 14 14" fill="none" xmlns="http://www.w3.org/2000/svg">
<path d="M7 4.9C6.44305 4.9 5.9089 5.12125 5.51508 5.51508C5.12125 5.9089 4.9 6.44305 4.9 7C4.9 7.55695 5.12125 8.0911 5.51508 8.48492C5.9089 8.87875 6.44305 9.1 7 9.1C7.55695 9.1 8.0911 8.87875 8.48492 8.48492C8.87875 8.0911 9.1 7.55695 9.1 7C9.1 6.44305 8.87875 5.9089 8.48492 5.51508C8.0911 5.12125 7.55695 4.9 7 4.9ZM7 3.5C7.92826 3.5 8.8185 3.86875 9.47487 4.52513C10.1313 5.1815 10.5 6.07174 10.5 7C10.5 7.92826 10.1313 8.8185 9.47487 9.47487C8.8185 10.1313 7.92826 10.5 7 10.5C6.07174 10.5 5.1815 10.1313 4.52513 9.47487C3.86875 8.8185 3.5 7.92826 3.5 7C3.5 6.07174 3.86875 5.1815 4.52513 4.52513C5.1815 3.86875 6.07174 3.5 7 3.5ZM11.55 3.325C11.55 3.55706 11.4578 3.77962 11.2937 3.94372C11.1296 4.10781 10.9071 4.2 10.675 4.2C10.4429 4.2 10.2204 4.10781 10.0563 3.94372C9.89219 3.77962 9.8 3.55706 9.8 3.325C9.8 3.09294 9.89219 2.87038 10.0563 2.70628C10.2204 2.54219 10.4429 2.45 10.675 2.45C10.9071 2.45 11.1296 2.54219 11.2937 2.70628C11.4578 2.87038 11.55 3.09294 11.55 3.325ZM7 1.4C5.2682 1.4 4.9854 1.4049 4.1797 1.4406C3.6309 1.4665 3.2627 1.54 2.9211 1.673C2.6173 1.7906 2.3982 1.9313 2.1651 2.1651C1.946 2.37678 1.77755 2.63521 1.6723 2.9211C1.5393 3.2641 1.4658 3.6316 1.4406 4.1797C1.4042 4.9525 1.4 5.2227 1.4 7C1.4 8.7318 1.4049 9.0146 1.4406 9.8203C1.4665 10.3684 1.54 10.7373 1.6723 11.0782C1.7913 11.3827 1.9313 11.6018 2.1637 11.8342C2.3996 12.0694 2.6187 12.2101 2.9197 12.3263C3.2655 12.46 3.6337 12.5342 4.1797 12.5594C4.9525 12.5958 5.2227 12.6 7 12.6C8.7318 12.6 9.0146 12.5951 9.8203 12.5594C10.3677 12.5335 10.7366 12.46 11.0782 12.3277C11.3813 12.2094 11.6018 12.0687 11.8342 11.8363C12.0701 11.6004 12.2108 11.3813 12.327 11.0803C12.46 10.7352 12.5342 10.3663 12.5594 9.8203C12.5958 9.0475 12.6 8.7773 12.6 7C12.6 5.2682 12.5951 4.9854 12.5594 4.1797C12.5335 3.6323 12.46 3.2627 12.327 2.9211C12.2215 2.6355 12.0534 2.37717 11.8349 2.1651C11.6233 1.94589 11.3649 1.77742 11.0789 1.6723C10.7359 1.5393 10.3677 1.4658 9.8203 1.4406C9.0475 1.4042 8.7773 1.4 7 1.4ZM7 0C8.9019 0 9.1392 0.00699996 9.8854 0.042C10.6309 0.077 11.1384 0.1939 11.585 0.3675C12.047 0.5453 12.4362 0.7861 12.8254 1.1746C13.1813 1.52453 13.4568 1.94781 13.6325 2.415C13.8054 2.8609 13.923 3.3691 13.958 4.1146C13.9909 4.8608 14 5.0981 14 7C14 8.9019 13.993 9.1392 13.958 9.8854C13.923 10.6309 13.8054 11.1384 13.6325 11.585C13.4573 12.0524 13.1818 12.4758 12.8254 12.8254C12.4754 13.1812 12.0521 13.4566 11.585 13.6325C11.1391 13.8054 10.6309 13.923 9.8854 13.958C9.1392 13.9909 8.9019 14 7 14C5.0981 14 4.8608 13.993 4.1146 13.958C3.3691 13.923 2.8616 13.8054 2.415 13.6325C1.94763 13.4571 1.52427 13.1817 1.1746 12.8254C0.818585 12.4755 0.543152 12.0522 0.3675 11.585C0.1939 11.1391 0.077 10.6309 0.042 9.8854C0.00909996 9.1392 0 8.9019 0 7C0 5.0981 0.00699996 4.8608 0.042 4.1146C0.077 3.3684 0.1939 2.8616 0.3675 2.415C0.542665 1.94753 0.818163 1.52412 1.1746 1.1746C1.52437 0.818462 1.9477 0.543011 2.415 0.3675C2.8616 0.1939 3.3684 0.077 4.1146 0.042C4.8608 0.00909996 5.0981 0 7 0Z" fill="#CC7B56"/>
</svg>
