<svg width="20" height="27" viewBox="0 0 20 27" fill="none" xmlns="http://www.w3.org/2000/svg">
<path d="M7.46625 20.5002H8.75V14.2502H11.25V20.5002H12.5338C12.6988 18.9977 13.465 17.7577 14.7088 16.404C14.85 16.2515 15.7488 15.3202 15.855 15.1877C16.7379 14.0848 17.2912 12.7549 17.4514 11.3512C17.6116 9.9475 17.372 8.52713 16.7603 7.25364C16.1486 5.98014 15.1897 4.90531 13.9939 4.15293C12.7981 3.40055 11.4141 3.00122 10.0014 3.00092C8.58857 3.00062 7.20443 3.39936 6.00833 4.15123C4.81223 4.9031 3.85282 5.97752 3.24058 7.25075C2.62834 8.52398 2.38818 9.94425 2.54774 11.348C2.70731 12.7517 3.26012 14.0819 4.1425 15.1852C4.25 15.319 5.15125 16.2515 5.29 16.4027C6.535 17.7577 7.30125 18.9977 7.46625 20.5002V20.5002ZM7.5 23.0002V24.2502H12.5V23.0002H7.5ZM2.1925 16.7502C1.01524 15.2793 0.277438 13.5058 0.0640837 11.6339C-0.149271 9.76205 0.170504 7.86797 0.98657 6.16989C1.80264 4.47181 3.0818 3.0388 4.6767 2.03594C6.2716 1.03308 8.11736 0.501163 10.0014 0.501465C11.8854 0.501767 13.7309 1.03427 15.3255 2.03765C16.9201 3.04102 18.1988 4.47444 19.0143 6.17278C19.8298 7.87112 20.149 9.7653 19.9351 11.6371C19.7211 13.5089 18.9827 15.2822 17.805 16.7527C17.03 17.7177 15 19.2502 15 21.1252V24.2502C15 24.9133 14.7366 25.5491 14.2678 26.018C13.7989 26.4868 13.163 26.7502 12.5 26.7502H7.5C6.83696 26.7502 6.20108 26.4868 5.73224 26.018C5.2634 25.5491 5 24.9133 5 24.2502V21.1252C5 19.2502 2.96875 17.7177 2.1925 16.7502Z" fill="#CC7B56"/>
</svg>
