<?xml version="1.0" encoding="iso-8859-1"?>
<!-- Generator: Adobe Illustrator 19.0.0, SVG Export Plug-In . SVG Version: 6.00 Build 0)  -->
<svg version="1.1" id="Layer_1" xmlns="http://www.w3.org/2000/svg" xmlns:xlink="http://www.w3.org/1999/xlink" x="0px" y="0px"
	 viewBox="0 0 485 485" style="enable-background:new 0 0 485 485;" xml:space="preserve">
<path style="fill:#40596B;" d="M301.8,0H20.2C9,0,0,9,0,20.2v444.6C0,476,9,485,20.2,485h281.7c11.2,0,20.2-9,20.2-20.2V20.2
	C322.1,9,313,0,301.8,0z"/>
<rect x="43.1" y="53.6" style="fill:#FFFFFF;" width="235.8" height="330.5"/>
<g>
	<path style="fill:#ACB3BA;" d="M202,34h-82c-0.4,0-0.7-0.3-0.7-0.7v-13c0-0.4,0.3-0.7,0.7-0.7h82c0.4,0,0.7,0.3,0.7,0.7v13
		C202.7,33.7,202.4,34,202,34z"/>
	<path style="fill:#ACB3BA;" d="M189.2,421.1h-56.5c-7.5,0-13.5,6-13.5,13.5s6,13.5,13.5,13.5h56.5c7.5,0,13.5-6,13.5-13.5
		S196.7,421.1,189.2,421.1z"/>
</g>
<path style="fill:#84DBFF;" d="M464.8,89.7H126.3c-11.2,0-20.2,9-20.2,20.2v218c0,11.2,9,20.2,20.2,20.2h338.5
	c11.2,0,20.2-9,20.2-20.2v-218C485,98.7,476,89.7,464.8,89.7z"/>
<rect x="106.1" y="139.8" style="fill:#40596B;" width="378.9" height="46.9"/>
<g>
	<rect x="122.3" y="222" style="fill:#54C0EB;" width="67.2" height="20.5"/>
	<rect x="215.4" y="222" style="fill:#54C0EB;" width="67.2" height="20.5"/>
	<rect x="308.5" y="222" style="fill:#54C0EB;" width="67.2" height="20.5"/>
	<rect x="401.6" y="222" style="fill:#54C0EB;" width="67.2" height="20.5"/>
</g>
<g>
</g>
<g>
</g>
<g>
</g>
<g>
</g>
<g>
</g>
<g>
</g>
<g>
</g>
<g>
</g>
<g>
</g>
<g>
</g>
<g>
</g>
<g>
</g>
<g>
</g>
<g>
</g>
<g>
</g>
</svg>
