<svg width="24" height="24" viewBox="0 0 24 24" fill="none" xmlns="http://www.w3.org/2000/svg">
<path d="M17.1516 13.596L19.4269 15.8713C19.7434 16.1878 19.7434 16.701 19.4269 17.0176C17.7156 18.7289 15.0063 18.9214 13.0702 17.4693L11.9619 16.6381C10.2184 15.3304 8.66955 13.7816 7.3619 12.0381L6.53067 10.9298C5.07858 8.99367 5.27112 6.28443 6.98243 4.57313C7.29896 4.2566 7.81215 4.2566 8.12868 4.57313L10.404 6.84845C10.7945 7.23897 10.7945 7.87214 10.404 8.26266L9.57488 9.09178C9.43063 9.23603 9.39487 9.45641 9.4861 9.63887C10.5409 11.7485 12.2515 13.4591 14.3611 14.5139C14.5436 14.6051 14.764 14.5694 14.9082 14.4251L15.7373 13.596C16.1279 13.2055 16.761 13.2055 17.1516 13.596Z" stroke="white"/>
</svg>
