<svg width="18" height="21" viewBox="0 0 18 21" fill="none" xmlns="http://www.w3.org/2000/svg">
<path d="M0 5.99981L8.445 0.36981C8.60933 0.260171 8.80245 0.20166 9 0.20166C9.19755 0.20166 9.39067 0.260171 9.555 0.36981L18 5.99981V19.9998C18 20.265 17.8946 20.5194 17.7071 20.7069C17.5196 20.8945 17.2652 20.9998 17 20.9998H1C0.734784 20.9998 0.48043 20.8945 0.292893 20.7069C0.105357 20.5194 0 20.265 0 19.9998V5.99981ZM2 7.06981V18.9998H16V7.06981L9 2.40381L2 7.06981ZM9 9.99981C8.46957 9.99981 7.96086 9.7891 7.58579 9.41402C7.21071 9.03895 7 8.53024 7 7.99981C7 7.46938 7.21071 6.96067 7.58579 6.5856C7.96086 6.21052 8.46957 5.99981 9 5.99981C9.53043 5.99981 10.0391 6.21052 10.4142 6.5856C10.7893 6.96067 11 7.46938 11 7.99981C11 8.53024 10.7893 9.03895 10.4142 9.41402C10.0391 9.7891 9.53043 9.99981 9 9.99981Z" fill="#CC7B56"/>
</svg>
