<svg width="131" height="122" viewBox="0 0 131 122" fill="none" xmlns="http://www.w3.org/2000/svg">
<path d="M76.4112 63.5925L67.5395 84.7575C67.1412 85.5371 54.0173 132.286 28.9238 118.437C23.9977 115.72 21.1584 111.056 23.1023 105.994C25.5364 99.6652 61.7793 72.4711 61.7793 72.4711L76.4112 63.5925ZM48.4478 108.748C56.7885 101.728 62.644 89.8095 58.9945 86.0681C55.3859 82.3676 49.8504 88.5431 42.5242 95.0114C34.8644 101.772 30.1902 103.182 30.9766 108.179C31.7868 113.351 40.628 115.325 48.4478 108.748Z" fill="#CC7B56" fill-opacity="0.4"/>
<path d="M64.0977 51.8477L55.9204 66.8813L36.1785 75.9335C33.6831 77.0774 31.5792 78.9294 30.1494 81.2716C27.6642 85.3398 22.7687 91.5527 15.7353 92.2949C7.76907 93.1426 1.69228 86.5347 1.05907 78.5413C0.412243 70.3878 4.86855 60.059 24.8215 61.6726C29.1893 62.0233 33.5809 61.5739 37.8228 60.4675L64.0977 51.8477ZM25.0054 80.8903C28.4029 77.3259 28.2701 71.6815 24.7058 68.2805C21.1414 64.8796 15.497 65.0157 12.096 68.5801C8.69846 72.1445 8.83123 77.7889 12.3956 81.1899C15.96 84.5874 21.6044 84.4546 25.0054 80.8903Z" fill="#CC7B56" fill-opacity="0.4"/>
<path d="M55.9203 66.8812L61.7793 72.4712L76.4112 63.5926L129.264 1L120.92 3.83243L64.0976 51.8476L55.9203 66.8812Z" stroke="#051B2B" stroke-width="2" stroke-miterlimit="10" stroke-linecap="round" stroke-linejoin="round"/>
<path d="M74.3108 53.4681C75.9483 55.0273 76.0095 57.6214 74.4469 59.2589C72.8877 60.893 70.2936 60.9542 68.6561 59.395C67.022 57.8324 66.9607 55.2417 68.5199 53.6042C70.0825 51.9667 72.6733 51.9054 74.3108 53.4681Z" stroke="#051B2B" stroke-width="2" stroke-miterlimit="10" stroke-linecap="round" stroke-linejoin="round"/>
<path d="M58.9945 86.0681C62.644 89.8095 56.7885 101.728 48.4478 108.748C40.6279 115.325 31.7868 113.351 30.9766 108.179C30.1902 103.182 34.8644 101.772 42.5242 95.0114C49.8504 88.5431 55.3859 82.3676 58.9945 86.0681Z" stroke="#051B2B" stroke-width="2" stroke-miterlimit="10" stroke-linecap="round" stroke-linejoin="round"/>
<path d="M76.4112 63.5925L67.5395 84.7575C67.1411 85.5371 54.0173 132.286 28.9238 118.437C23.9977 115.72 21.1584 111.056 23.1023 105.994C25.5364 99.6652 61.7793 72.4711 61.7793 72.4711" stroke="#051B2B" stroke-width="2" stroke-miterlimit="10" stroke-linecap="round" stroke-linejoin="round"/>
<path d="M24.7058 68.2804C28.2702 71.6814 28.403 77.3258 25.0054 80.8902C21.6045 84.4546 15.96 84.5873 12.3957 81.1898C8.83129 77.7888 8.69852 72.1444 12.0961 68.58C15.497 65.0156 21.1415 64.8795 24.7058 68.2804Z" stroke="#051B2B" stroke-width="2" stroke-miterlimit="10" stroke-linecap="round" stroke-linejoin="round"/>
<path d="M55.9204 66.8813L36.1785 75.9335C33.6831 77.0774 31.5792 78.9294 30.1494 81.2716C27.6642 85.3398 22.7687 91.5527 15.7353 92.2949C7.76907 93.1426 1.69228 86.5347 1.05907 78.5413C0.412243 70.3878 4.86855 60.059 24.8215 61.6726C29.1893 62.0233 33.5809 61.5739 37.8228 60.4675L64.0943 51.8477" stroke="#051B2B" stroke-width="2" stroke-miterlimit="10" stroke-linecap="round" stroke-linejoin="round"/>
</svg>
