<svg height="26" width="27" fill="none" viewBox="0 0 27 26" xmlns="http://www.w3.org/2000/svg">
	<path d="M4.11834 18.4165C3.66038 17.6245 3.30439 16.7779 3.05884 15.8966C3.59325 15.6248 4.04207 15.2105 4.35562 14.6994C4.66917 14.1884 4.83525 13.6006 4.83547 13.001C4.8357 12.4014 4.67006 11.8135 4.35689 11.3022C4.04372 10.7909 3.59522 10.3763 3.061 10.1041C3.55071 8.33333 4.48313 6.71642 5.77042 5.40564C6.27319 5.73251 6.85659 5.9139 7.45606 5.92974C8.05554 5.94557 8.6477 5.79524 9.16703 5.49538C9.68635 5.19551 10.1126 4.75781 10.3986 4.2307C10.6845 3.7036 10.8191 3.10765 10.7873 2.50881C12.5663 2.04907 14.433 2.04981 16.2116 2.51097C16.1801 3.1098 16.3149 3.70566 16.6011 4.23262C16.8873 4.75957 17.3137 5.19707 17.8332 5.49671C18.3526 5.79634 18.9448 5.94643 19.5442 5.93036C20.1437 5.91428 20.727 5.73268 21.2296 5.40564C21.8568 6.04481 22.4137 6.77172 22.8817 7.58314C23.3508 8.39456 23.7018 9.24064 23.9412 10.103C23.4068 10.3748 22.9579 10.7891 22.6444 11.3002C22.3308 11.8112 22.1648 12.399 22.1645 12.9986C22.1643 13.5982 22.3299 14.1861 22.6431 14.6974C22.9563 15.2087 23.4048 15.6233 23.939 15.8956C23.4493 17.6663 22.5169 19.2832 21.2296 20.594C20.7268 20.2671 20.1434 20.0857 19.5439 20.0699C18.9445 20.054 18.3523 20.2044 17.833 20.5042C17.3137 20.8041 16.8874 21.2418 16.6014 21.7689C16.3155 22.296 16.1809 22.892 16.2127 23.4908C14.4337 23.9505 12.567 23.9498 10.7884 23.4886C10.8199 22.8898 10.6851 22.294 10.3989 21.767C10.1127 21.24 9.68628 20.8025 9.16686 20.5029C8.64743 20.2033 8.05523 20.0532 7.45579 20.0693C6.85635 20.0853 6.27305 20.2669 5.77042 20.594C5.13016 19.9407 4.57507 19.209 4.11834 18.4165ZM10.25 18.6288C11.4044 19.2947 12.2724 20.3632 12.6875 21.6296C13.2281 21.6806 13.7708 21.6816 14.3114 21.6307C14.7268 20.3641 15.5952 19.2955 16.75 18.6299C17.904 17.9622 19.2639 17.7442 20.5688 18.0178C20.8829 17.5758 21.1538 17.1046 21.3791 16.6116C20.4901 15.6187 19.999 14.3325 20 12.9998C20 11.6348 20.5092 10.3597 21.3791 9.38797C21.1522 8.89522 20.8802 8.42449 20.5666 7.98181C19.2626 8.25514 17.9035 8.03757 16.75 7.37081C15.5956 6.70496 14.7276 5.63637 14.3125 4.36997C13.7719 4.31906 13.2292 4.31797 12.6886 4.36889C12.2732 5.63547 11.4048 6.70408 10.25 7.36972C9.09602 8.0374 7.7361 8.25537 6.43125 7.98181C6.1177 8.42412 5.8464 8.89491 5.62092 9.38797C6.50987 10.3809 7.00096 11.6671 7 12.9998C7 14.3648 6.49084 15.6399 5.62092 16.6116C5.84785 17.1044 6.11984 17.5751 6.43342 18.0178C7.73745 17.7445 9.09648 17.962 10.25 18.6288ZM13.5 16.2498C12.6381 16.2498 11.8114 15.9074 11.2019 15.2979C10.5924 14.6884 10.25 13.8618 10.25 12.9998C10.25 12.1379 10.5924 11.3112 11.2019 10.7017C11.8114 10.0922 12.6381 9.74981 13.5 9.74981C14.362 9.74981 15.1886 10.0922 15.7981 10.7017C16.4076 11.3112 16.75 12.1379 16.75 12.9998C16.75 13.8618 16.4076 14.6884 15.7981 15.2979C15.1886 15.9074 14.362 16.2498 13.5 16.2498ZM13.5 14.0831C13.7873 14.0831 14.0629 13.969 14.266 13.7658C14.4692 13.5627 14.5833 13.2871 14.5833 12.9998C14.5833 12.7125 14.4692 12.4369 14.266 12.2338C14.0629 12.0306 13.7873 11.9165 13.5 11.9165C13.2127 11.9165 12.9371 12.0306 12.734 12.2338C12.5308 12.4369 12.4167 12.7125 12.4167 12.9998C12.4167 13.2871 12.5308 13.5627 12.734 13.7658C12.9371 13.969 13.2127 14.0831 13.5 14.0831Z" fill="#808080"/>
</svg>