<svg width="92" height="142" viewBox="0 0 92 142" fill="none" xmlns="http://www.w3.org/2000/svg">
<path d="M75.765 95.71V132.854H59.0015H32.2531H16.7085V95.714V80.5315H75.765V95.71ZM51.2654 102.903V80.797H41.0633V102.903H51.2654Z" fill="#CC7B56" fill-opacity="0.4"/>
<path d="M64.5089 16.5469L71.9594 23.1324C62.8515 22.006 61.6929 23.9048 55.9562 26.1577C46.1161 29.9794 40.0173 23.5106 40.0173 23.5106C48.4454 13.2883 64.5089 16.5469 64.5089 16.5469Z" fill="#CC7B56" fill-opacity="0.5"/>
<path d="M64.5088 16.5468C64.5088 16.5468 48.4453 13.2882 40.0173 23.5105L28.4514 22.1789C28.4514 22.1789 24.6577 3.01369 43.3241 1.09476C57.8026 -0.393724 63.1008 16.1405 64.5088 16.5468Z" fill="#CC7B56" fill-opacity="0.4"/>
<path d="M64.5088 16.5468C63.1008 16.1405 57.8026 -0.393724 43.3241 1.09476C24.6577 3.01369 28.4514 22.1789 28.4514 22.1789L40.0173 23.5105C40.0173 23.5105 46.116 29.9794 55.9561 26.1576C61.6928 23.9047 62.8514 22.0059 71.9593 23.1323L64.5088 16.5468Z" stroke="#051B2B" stroke-width="2" stroke-miterlimit="10" stroke-linecap="round" stroke-linejoin="round"/>
<path d="M64.5089 16.5469C64.5089 16.5469 48.4454 13.2883 40.0173 23.5106" stroke="#051B2B" stroke-width="2" stroke-miterlimit="10" stroke-linecap="round" stroke-linejoin="round"/>
<path d="M75.765 95.71V132.854H59.0015H32.2531H16.7085V95.714V80.5315H75.765V95.706" stroke="#051B2B" stroke-width="2" stroke-miterlimit="10" stroke-linecap="round" stroke-linejoin="round"/>
<path d="M51.2654 80.7969H41.0632V102.903H51.2654V80.7969Z" stroke="#051B2B" stroke-width="2" stroke-miterlimit="10" stroke-linecap="round" stroke-linejoin="round"/>
<path d="M87.4918 94.0122C88.5539 97.6208 89.9176 100.332 90.1912 103.124C90.4889 105.992 90.2113 108.885 89.3625 111.653L83.1913 132.089C82.9942 132.725 82.4632 133.485 81.7149 134.302L76.8834 138.707C75.2662 140.183 73.1581 141 70.9697 141H63.7525C62.9641 141 62.2359 140.521 61.9382 139.781L59.0015 132.854" stroke="#051B2B" stroke-width="2" stroke-miterlimit="10" stroke-linecap="round" stroke-linejoin="round"/>
<path d="M52.2631 46.6624C52.2832 50.7617 54.705 54.4829 58.4222 56.1524L61.6445 56.8122L66.2991 57.7656L70.5875 58.6547C72.438 59.0208 74.2121 59.765 75.7207 60.8874C76.2236 61.2495 76.8954 62.1908 77.5753 63.2489C79.2649 65.8718 80.6971 68.6557 81.916 71.5321L89.1814 92.4593C88.6424 93.0628 88.0751 93.5777 87.4918 94.0122C82.254 97.9587 75.765 95.7098 75.765 95.7098V95.7058" stroke="#051B2B" stroke-width="2" stroke-miterlimit="10" stroke-linecap="round" stroke-linejoin="round"/>
<path d="M32.253 132.854L29.3686 139.781C29.0709 140.521 28.3428 141 27.5543 141H20.3371C18.1487 141 16.0407 140.183 14.4234 138.707L9.59191 134.302C8.84365 133.485 8.31262 132.725 8.1155 132.089L1.94433 111.653C1.09549 108.885 0.817913 105.992 1.11561 103.124C1.39319 100.336 2.74892 97.6248 3.81097 94.0202C3.81499 94.0162 3.81499 94.0162 3.81499 94.0122" stroke="#051B2B" stroke-width="2" stroke-miterlimit="10" stroke-linecap="round" stroke-linejoin="round"/>
<path d="M15.5418 95.7139C15.5418 95.7139 9.0448 97.9708 3.81097 94.0202C3.22765 93.5817 2.66444 93.0668 2.12537 92.4634L9.39479 71.5241C10.6057 68.6517 12.0379 65.8678 13.7355 63.2409C14.4194 62.1949 15.0792 61.2576 15.5861 60.8794C17.0826 59.765 18.8688 59.0288 20.7193 58.6507L25.0118 57.7616L29.6583 56.8122L32.8766 56.1565C36.4007 54.5755 39.1564 48.1187 39.442 43.955V43.9509" stroke="#051B2B" stroke-width="2" stroke-miterlimit="10" stroke-linecap="round" stroke-linejoin="round"/>
<path d="M31.4646 29.3076C31.4646 29.3076 32.7922 39.0713 39.4421 43.9551C41.2483 45.2867 43.4449 46.2562 46.1201 46.57C48.1396 46.8073 49.8735 46.566 51.362 45.9907C59.09 43.0016 60.1883 31.0495 60.1883 31.0495" stroke="#051B2B" stroke-width="2" stroke-miterlimit="10" stroke-linecap="round" stroke-linejoin="round"/>
<path d="M61.6445 56.8123C45.1626 69.9551 29.6582 56.8123 29.6582 56.8123" stroke="#051B2B" stroke-width="2" stroke-miterlimit="10" stroke-linecap="round" stroke-linejoin="round"/>
</svg>
