<svg width="100" height="100" viewBox="0 0 100 100" fill="none" xmlns="http://www.w3.org/2000/svg">
<path d="M19.7934 58.2083C19.21 65 24.585 70.8333 31.4183 70.8333H75.7934C81.7934 70.8333 87.0434 65.9167 87.5017 59.9584L89.7517 28.7084C90.2517 21.7917 85.0017 16.1667 78.0434 16.1667H24.2517" stroke="#2C3244" stroke-width="2" stroke-miterlimit="10" stroke-linecap="round" stroke-linejoin="round"/>
<path d="M8.33203 8.33333H15.5821C20.0821 8.33333 23.6237 12.2083 23.2487 16.6667L21.1654 41.8749" stroke="#2C3244" stroke-width="2" stroke-miterlimit="10" stroke-linecap="round" stroke-linejoin="round"/>
<path d="M67.7083 91.6667C70.5848 91.6667 72.9167 89.3348 72.9167 86.4583C72.9167 83.5818 70.5848 81.25 67.7083 81.25C64.8318 81.25 62.5 83.5818 62.5 86.4583C62.5 89.3348 64.8318 91.6667 67.7083 91.6667Z" stroke="#2C3244" stroke-width="2" stroke-miterlimit="10" stroke-linecap="round" stroke-linejoin="round"/>
<path d="M34.3763 91.6667C37.2528 91.6667 39.5846 89.3348 39.5846 86.4583C39.5846 83.5818 37.2528 81.25 34.3763 81.25C31.4998 81.25 29.168 83.5818 29.168 86.4583C29.168 89.3348 31.4998 91.6667 34.3763 91.6667Z" stroke="#2C3244" stroke-width="2" stroke-miterlimit="10" stroke-linecap="round" stroke-linejoin="round"/>
<path d="M37.5 33.3333H87.5" stroke="#2C3244" stroke-width="2" stroke-miterlimit="10" stroke-linecap="round" stroke-linejoin="round"/>
</svg>
