<svg width="22" height="23" viewBox="0 0 22 23" fill="none" xmlns="http://www.w3.org/2000/svg">
<path d="M5.34337 13.6209L2.51537 16.4499L6.05037 19.9849L19.4854 6.54988L15.9504 3.01488L13.8284 5.13588L15.2434 6.54988L13.8284 7.96388L12.4144 6.54988L10.2934 8.67188L12.4144 10.7919L11.0004 12.2079L8.87937 10.0869L6.75737 12.2079L8.17237 13.6219L6.75737 15.0369L5.34337 13.6219V13.6209ZM16.6574 0.892884L21.6074 5.84288C21.7948 6.03041 21.9002 6.28472 21.9002 6.54988C21.9002 6.81505 21.7948 7.06936 21.6074 7.25688L6.75737 22.1069C6.56984 22.2944 6.31554 22.3997 6.05037 22.3997C5.78521 22.3997 5.5309 22.2944 5.34337 22.1069L0.393372 17.1569C0.205901 16.9694 0.100586 16.715 0.100586 16.4499C0.100586 16.1847 0.205901 15.9304 0.393372 15.7429L15.2434 0.892884C15.4309 0.705413 15.6852 0.600098 15.9504 0.600098C16.2155 0.600098 16.4698 0.705413 16.6574 0.892884Z" fill="#CC7B56"/>
</svg>
