<svg height="26" width="26" fill="none" viewBox="0 0 26 26" xmlns="http://www.w3.org/2000/svg">
	<path d="M15.7245 5.41688L18.5477 2.59263C18.6483 2.4919 18.7678 2.412 18.8993 2.35748C19.0308 2.30296 19.1718 2.2749 19.3142 2.2749C19.4565 2.2749 19.5975 2.30296 19.729 2.35748C19.8605 2.412 19.98 2.4919 20.0806 2.59263L24.6761 7.18921C24.8792 7.39237 24.9933 7.66787 24.9933 7.95513C24.9933 8.24239 24.8792 8.51789 24.6761 8.72105L20.5833 12.8139V22.7502C20.5833 23.0375 20.4691 23.3131 20.266 23.5162C20.0628 23.7194 19.7873 23.8335 19.4999 23.8335H6.49994C6.21263 23.8335 5.93708 23.7194 5.73391 23.5162C5.53075 23.3131 5.41661 23.0375 5.41661 22.7502V12.8139L1.32378 8.72105C1.12068 8.51789 1.00659 8.24239 1.00659 7.95513C1.00659 7.66787 1.12068 7.39237 1.32378 7.18921L5.91928 2.59263C6.01989 2.4919 6.13937 2.412 6.27088 2.35748C6.4024 2.30296 6.54337 2.2749 6.68574 2.2749C6.8281 2.2749 6.96907 2.30296 7.10059 2.35748C7.2321 2.412 7.35158 2.4919 7.45219 2.59263L10.2754 5.41688H15.7245ZM16.6215 7.58355H9.37836L6.68628 4.89146L3.62153 7.95513L7.58328 11.9169V21.6669H18.4166V11.9169L22.3784 7.95513L19.3136 4.89146L16.6215 7.58355Z" fill="#808080"/>
</svg>