<svg height="26" width="27" fill="none" viewBox="0 0 27 26" xmlns="http://www.w3.org/2000/svg">
	<path d="M10.2121 19.4998C10.0833 20.4037 9.63277 21.2307 8.94319 21.8289C8.25361 22.4272 7.37132 22.7566 6.45837 22.7566C5.54543 22.7566 4.66314 22.4272 3.97356 21.8289C3.28397 21.2307 2.83341 20.4037 2.70462 19.4998H1.58337V6.49984C1.58337 6.21252 1.69751 5.93697 1.90067 5.73381C2.10384 5.53064 2.37939 5.4165 2.66671 5.4165H17.8334C18.1207 5.4165 18.3962 5.53064 18.5994 5.73381C18.8026 5.93697 18.9167 6.21252 18.9167 6.49984V8.6665H22.1667L25.4167 13.0605V19.4998H23.2121C23.0833 20.4037 22.6328 21.2307 21.9432 21.8289C21.2536 22.4272 20.3713 22.7566 19.4584 22.7566C18.5454 22.7566 17.6631 22.4272 16.9736 21.8289C16.284 21.2307 15.8334 20.4037 15.7046 19.4998H10.2121ZM16.75 7.58317H3.75004V16.304C4.17748 15.8676 4.70403 15.541 5.28486 15.3519C5.86569 15.1628 6.48361 15.1168 7.08603 15.2178C7.68846 15.3189 8.25755 15.564 8.74487 15.9323C9.23219 16.3006 9.62331 16.7812 9.88496 17.3332H16.0318C16.2138 16.9508 16.4575 16.603 16.75 16.304V7.58317ZM18.9167 14.0832H23.25V13.7744L21.0747 10.8332H18.9167V14.0832ZM19.4584 20.5832C19.8895 20.5832 20.303 20.4119 20.6078 20.1071C20.9127 19.8022 21.0839 19.3887 21.0839 18.9576C21.0839 18.5265 20.9127 18.113 20.6078 17.8082C20.303 17.5033 19.8895 17.3321 19.4584 17.3321C19.0273 17.3321 18.6138 17.5033 18.3089 17.8082C18.0041 18.113 17.8328 18.5265 17.8328 18.9576C17.8328 19.3887 18.0041 19.8022 18.3089 20.1071C18.6138 20.4119 19.0273 20.5832 19.4584 20.5832ZM8.08337 18.9582C8.08337 18.7448 8.04134 18.5335 7.95968 18.3363C7.87801 18.1392 7.75832 17.96 7.60742 17.8091C7.45653 17.6582 7.27739 17.5385 7.08024 17.4569C6.88308 17.3752 6.67177 17.3332 6.45837 17.3332C6.24498 17.3332 6.03367 17.3752 5.83651 17.4569C5.63936 17.5385 5.46022 17.6582 5.30933 17.8091C5.15843 17.96 5.03873 18.1392 4.95707 18.3363C4.87541 18.5335 4.83337 18.7448 4.83337 18.9582C4.83337 19.3891 5.00458 19.8025 5.30933 20.1072C5.61407 20.412 6.0274 20.5832 6.45837 20.5832C6.88935 20.5832 7.30268 20.412 7.60742 20.1072C7.91217 19.8025 8.08337 19.3891 8.08337 18.9582Z" fill="#CC7B56"/>
</svg>