<svg width="15" height="12" viewBox="0 0 15 12" fill="none" xmlns="http://www.w3.org/2000/svg">
<path d="M10.0235 1.44264C9.47564 1.44255 8.94962 1.65754 8.55866 2.04136C8.1677 2.42518 7.94304 2.94714 7.93302 3.49492L7.91284 4.63027C7.91166 4.69123 7.8976 4.75125 7.87159 4.80639C7.84559 4.86153 7.80821 4.91056 7.76193 4.95024C7.71564 4.98993 7.66148 5.01937 7.60301 5.03666C7.54455 5.05394 7.48308 5.05867 7.42266 5.05053L6.2974 4.89771C4.81676 4.69587 3.39812 4.01394 2.03714 2.88003C1.60607 5.26606 2.44803 6.91899 4.4758 8.19418L5.73513 8.98568C5.79497 9.02329 5.84468 9.07498 5.87992 9.13624C5.91515 9.1975 5.93484 9.26646 5.93726 9.33709C5.93968 9.40772 5.92475 9.47786 5.89379 9.54139C5.86283 9.60491 5.81677 9.65989 5.75964 9.70149L4.61204 10.5398C5.29469 10.5824 5.94274 10.5521 6.4805 10.4454C9.8815 9.76637 12.1428 7.20733 12.1428 2.98599C12.1428 2.64142 11.4133 1.44264 10.0235 1.44264ZM6.49131 3.46825C6.50389 2.77338 6.72119 2.09766 7.11598 1.5257C7.51077 0.953736 8.06552 0.510947 8.71077 0.252771C9.35602 -0.00540597 10.0631 -0.0674968 10.7435 0.0742724C11.4238 0.216042 12.0473 0.555371 12.5357 1.04977C13.0482 1.04617 13.4843 1.17592 14.4597 0.584821C14.2182 1.76703 14.0992 2.28028 13.5845 2.98599C13.5845 8.49478 10.1987 11.1735 6.76308 11.859C4.40732 12.329 0.981807 11.557 0 10.5319C0.500274 10.493 2.53309 10.2746 3.70809 9.41459C2.71402 8.75933 -1.24276 6.43097 1.35737 0.171049C2.57778 1.59618 3.81549 2.56646 5.06978 3.08115C5.90454 3.42355 6.10926 3.41635 6.49203 3.46897L6.49131 3.46825Z" fill="#CC7B56"/>
</svg>
