<svg width="17" height="17" viewBox="0 0 17 17" fill="none" xmlns="http://www.w3.org/2000/svg">
<path fill-rule="evenodd" clip-rule="evenodd" d="M7 1.5C3.96243 1.5 1.5 3.96243 1.5 7C1.5 10.0376 3.96243 12.5 7 12.5C10.0376 12.5 12.5 10.0376 12.5 7C12.5 3.96243 10.0376 1.5 7 1.5ZM0.5 7C0.5 3.41015 3.41015 0.5 7 0.5C10.5899 0.5 13.5 3.41015 13.5 7C13.5 10.5899 10.5899 13.5 7 13.5C3.41015 13.5 0.5 10.5899 0.5 7ZM5.66061 3.76642C6.08525 3.59053 6.54037 3.5 7 3.5C7.27614 3.5 7.5 3.72386 7.5 4C7.5 4.27614 7.27614 4.5 7 4.5C6.6717 4.5 6.34661 4.56466 6.04329 4.6903C5.73998 4.81594 5.46438 5.00009 5.23223 5.23223C5.00009 5.46438 4.81594 5.73998 4.6903 6.04329C4.56466 6.34661 4.5 6.6717 4.5 7C4.5 7.27614 4.27614 7.5 4 7.5C3.72386 7.5 3.5 7.27614 3.5 7C3.5 6.54037 3.59053 6.08525 3.76642 5.66061C3.94231 5.23597 4.20012 4.85013 4.52513 4.52513C4.85013 4.20012 5.23597 3.94231 5.66061 3.76642ZM13.3536 12.6464C13.1583 12.4512 12.8417 12.4512 12.6464 12.6464C12.4512 12.8417 12.4512 13.1583 12.6464 13.3536L15.6464 16.3536C15.8417 16.5488 16.1583 16.5488 16.3536 16.3536C16.5488 16.1583 16.5488 15.8417 16.3536 15.6464L13.3536 12.6464Z" fill="white"/>
</svg>
